<?xml version="1.0" encoding="utf-8"?>
<!-- Generator: Adobe Illustrator 15.1.0, SVG Export Plug-In . SVG Version: 6.00 Build 0)  -->
<!DOCTYPE svg PUBLIC "-//W3C//DTD SVG 1.1//EN" "http://www.w3.org/Graphics/SVG/1.1/DTD/svg11.dtd" [
	<!ENTITY ns_flows "http://ns.adobe.com/Flows/1.0/">
	<!ENTITY ns_extend "http://ns.adobe.com/Extensibility/1.0/">
	<!ENTITY ns_ai "http://ns.adobe.com/AdobeIllustrator/10.0/">
	<!ENTITY ns_graphs "http://ns.adobe.com/Graphs/1.0/">
	<!ENTITY st0 "fill:#AD8B38;">
	<!ENTITY st1 "fill:#316767;">
]>
<svg version="1.1" id="Layer_1" xmlns:x="&ns_extend;" xmlns:i="&ns_ai;" xmlns:graph="&ns_graphs;"
	 xmlns="http://www.w3.org/2000/svg" xmlns:xlink="http://www.w3.org/1999/xlink" xmlns:a="http://ns.adobe.com/AdobeSVGViewerExtensions/3.0/"
	 x="0px" y="0px" width="358.3px" height="93.4px" viewBox="0 0 358.3 93.4" style="enable-background:new 0 0 358.3 93.4;"
	 xml:space="preserve">
<g>
	<g>
		<path style="&st1;" d="M9.6,78c0,0,14.6-3.6,19.3-13.5c6.7-9.7,2.7-28.5,24.1-42.8c0,0,4.4-17.3,21.2-17.3c0,0,10.6-1.4,13.6,7.9
			c0,0,0.6,2.9,2.6,2.1c2.1-0.8,0.4-4.5-2-7.2S81.9,0,71.7,0C61.5,0,52.7,6.1,50.5,15.6c0,0-6.1-1.2-3.9,1s2.5,3.3,1.1,3.5
			c-1.4,0.2-10.3,1.8-14.3,12.9C29.5,44.1,32.6,68.2,9.6,78z"/>
		<path style="&st1;" d="M93.2,15.3l-2.7,3.6c0,0,3.3,1.5,5.6,4.3c2.3,2.9,3.3,6.8,2.7,13.4c-0.5,6.7-0.6,16.4,8.8,19.6
			c0,0-5.8-3.3-5.3-12.7C102.8,34.1,105.8,23.6,93.2,15.3z"/>
		<path style="&st1;" d="M112.5,61.5c0,0-1.7-1.9-14.8-2.7c-13.1-0.8-36.1,4.4-58.9,11.7S0.1,84.5,0,86.1s8.3-1.5,19.2-5.1
			c10.9-3.6,44.8-15,65.6-16.7C105,61.9,116.4,65.3,112.5,61.5z"/>
		<path style="&st1;" d="M86.5,70.1c0,0-7.5-4.4-22.1,0C49.8,74.5,41.5,81,44.9,81c3.4,0,5.1-2.5,16-6c10.9-3.5,17-3.9,22-2.4
			C88,74.1,89.5,72,86.5,70.1z"/>
		<path style="&st1;" d="M69.2,75.3c0,0-5.5,1-6.3,9.4S66,95.9,70,90.7C73.9,85.6,74.2,74.6,69.2,75.3z"/>
	</g>
	<g>
		<g>
			<g>
				<path style="&st0;" d="M165.8,63.8l-10.6-26.2h7.3l4.9,13.4l1.4,4.5c0.4-1.1,0.6-1.9,0.7-2.2c0.2-0.7,0.5-1.5,0.7-2.2l5-13.4
					h7.1L172,63.8H165.8z"/>
				<path style="&st0;" d="M190.9,45.6l-6.3-1.1c0.7-2.5,1.9-4.4,3.7-5.6c1.7-1.2,4.3-1.8,7.7-1.8c3.1,0,5.4,0.4,6.9,1.1
					c1.5,0.7,2.6,1.7,3.2,2.8c0.6,1.1,0.9,3.2,0.9,6.2l-0.1,8.1c0,2.3,0.1,4,0.3,5.1c0.2,1.1,0.6,2.3,1.2,3.5h-6.9
					c-0.2-0.5-0.4-1.1-0.7-2.1c-0.1-0.4-0.2-0.7-0.2-0.8c-1.2,1.2-2.5,2-3.8,2.6s-2.8,0.9-4.3,0.9c-2.7,0-4.8-0.7-6.4-2.2
					c-1.6-1.5-2.3-3.3-2.3-5.6c0-1.5,0.4-2.8,1.1-4c0.7-1.2,1.7-2.1,3-2.7c1.3-0.6,3.1-1.2,5.5-1.6c3.2-0.6,5.5-1.2,6.7-1.7V46
					c0-1.3-0.3-2.3-1-2.9c-0.7-0.6-1.9-0.9-3.7-0.9c-1.2,0-2.2,0.2-2.9,0.7C191.9,43.5,191.3,44.4,190.9,45.6z M200.2,51.3
					c-0.9,0.3-2.3,0.7-4.2,1.1c-1.9,0.4-3.2,0.8-3.8,1.2c-0.9,0.6-1.4,1.5-1.4,2.4c0,1,0.4,1.8,1.1,2.5s1.6,1.1,2.8,1.1
					c1.3,0,2.4-0.4,3.6-1.2c0.8-0.6,1.4-1.4,1.7-2.3c0.2-0.6,0.3-1.7,0.3-3.4V51.3z"/>
				<path style="&st0;" d="M212.8,63.8V27.6h6.9v36.2H212.8z"/>
				<path style="&st0;" d="M225.9,63.8V27.6h6.9v36.2H225.9z"/>
				<path style="&st0;" d="M254.1,55.5l6.9,1.2c-0.9,2.5-2.3,4.5-4.2,5.8c-1.9,1.3-4.3,2-7.2,2c-4.6,0-7.9-1.5-10.1-4.5
					c-1.7-2.4-2.6-5.4-2.6-9c0-4.3,1.1-7.8,3.4-10.2c2.3-2.5,5.1-3.7,8.6-3.7c3.9,0,7,1.3,9.2,3.9s3.3,6.5,3.2,11.8H244
					c0.1,2.1,0.6,3.7,1.7,4.8c1.1,1.1,2.4,1.7,4,1.7c1.1,0,2-0.3,2.7-0.9C253.1,57.8,253.7,56.8,254.1,55.5z M254.5,48.5
					c0-2-0.6-3.5-1.6-4.6c-1-1-2.2-1.6-3.6-1.6c-1.5,0-2.8,0.6-3.8,1.7c-1,1.1-1.5,2.6-1.5,4.5H254.5z"/>
			</g>
			<g>
				<path style="&st0;" d="M137.8,56l0.5,2.8c-0.6,0.1-1,0.3-1.3,0.6c-0.3,0.3-0.4,0.8-0.4,1.3c0,0.7,0.2,1.3,0.7,1.7
					s1.3,0.6,2.4,0.6c1.3,0,2.2-0.2,2.7-0.6c0.5-0.4,0.8-1,0.8-1.7c0-0.5-0.2-1-0.5-1.3c-0.3-0.3-0.8-0.6-1.6-0.7l0.5-2.8
					c1.3,0.3,2.2,0.8,2.9,1.7s1,1.9,1,3.3c0,1.6-0.5,2.8-1.5,3.7c-1,0.9-2.3,1.4-4.1,1.4c-1.8,0-3.1-0.5-4.1-1.4
					c-1-0.9-1.5-2.2-1.5-3.8c0-1.3,0.3-2.3,0.8-3.1C135.8,56.9,136.7,56.4,137.8,56z"/>
				<path style="&st0;" d="M145.3,54.3h-14.7v-2.8h14.7V54.3z"/>
				<path style="&st0;" d="M145.3,42h-1.6c0.6,0.4,1,0.9,1.3,1.5c0.3,0.6,0.5,1.3,0.5,2c0,0.7-0.2,1.4-0.5,1.9
					c-0.3,0.6-0.8,1-1.3,1.2s-1.4,0.4-2.4,0.4h-6.7v-2.8h4.9c1.5,0,2.4-0.1,2.8-0.2s0.6-0.3,0.8-0.6c0.2-0.3,0.3-0.6,0.3-1
					c0-0.5-0.1-0.9-0.4-1.3s-0.6-0.6-1-0.8c-0.4-0.1-1.3-0.2-2.9-0.2h-4.5v-2.8h10.7V42z"/>
				<path style="&st0;" d="M145.3,37h-14.7v-2.8h5.3c-1-0.9-1.5-1.9-1.5-3.1c0-1.3,0.5-2.4,1.4-3.2c0.9-0.8,2.3-1.3,4.1-1.3
					c1.8,0,3.2,0.4,4.2,1.3c1,0.9,1.5,1.9,1.5,3.2c0,0.6-0.2,1.2-0.5,1.8c-0.3,0.6-0.8,1.1-1.3,1.5h1.6V37z M139.8,34.2
					c1.1,0,1.9-0.2,2.5-0.5c0.8-0.5,1.1-1.1,1.1-1.9c0-0.6-0.3-1.2-0.8-1.6c-0.5-0.4-1.4-0.7-2.5-0.7c-1.2,0-2.1,0.2-2.6,0.7
					c-0.5,0.4-0.8,1-0.8,1.7c0,0.7,0.3,1.2,0.8,1.7C137.9,34,138.7,34.2,139.8,34.2z"/>
			</g>
		</g>
	</g>
	<g>
		<path style="&st1;" d="M285.1,64.4h-6.9V38.1h6.4v3.7c1.1-1.8,2.1-2.9,3-3.5s1.9-0.8,3-0.8c1.6,0,3.1,0.4,4.6,1.3l-2.1,6.1
			c-1.2-0.8-2.3-1.1-3.3-1.1c-1,0-1.8,0.3-2.5,0.8s-1.2,1.5-1.6,2.9c-0.4,1.4-0.6,4.3-0.6,8.8V64.4z"/>
		<path style="&st1;" d="M312.3,56l6.9,1.2c-0.9,2.5-2.3,4.5-4.2,5.8c-1.9,1.3-4.3,2-7.2,2c-4.6,0-7.9-1.5-10.1-4.5
			c-1.7-2.4-2.6-5.4-2.6-9c0-4.3,1.1-7.8,3.4-10.2c2.3-2.5,5.1-3.7,8.6-3.7c3.9,0,7,1.3,9.2,3.9c2.3,2.6,3.3,6.5,3.2,11.8h-17.4
			c0.1,2.1,0.6,3.7,1.7,4.8c1.1,1.1,2.4,1.7,4,1.7c1.1,0,2-0.3,2.7-0.9C311.4,58.3,311.9,57.3,312.3,56z M312.7,49
			c-0.1-2-0.6-3.5-1.6-4.6c-1-1-2.2-1.6-3.6-1.6c-1.5,0-2.8,0.6-3.8,1.7c-1,1.1-1.5,2.6-1.5,4.5H312.7z"/>
		<path style="&st1;" d="M329.4,46.1l-6.3-1.1c0.7-2.5,1.9-4.4,3.7-5.6c1.7-1.2,4.3-1.8,7.7-1.8c3.1,0,5.4,0.4,6.9,1.1
			s2.6,1.7,3.2,2.8c0.6,1.1,0.9,3.2,0.9,6.2l-0.1,8.1c0,2.3,0.1,4,0.3,5.1c0.2,1.1,0.6,2.3,1.2,3.5h-6.9c-0.2-0.5-0.4-1.1-0.7-2.1
			c-0.1-0.4-0.2-0.7-0.2-0.8c-1.2,1.2-2.5,2-3.8,2.6c-1.4,0.6-2.8,0.9-4.3,0.9c-2.7,0-4.8-0.7-6.4-2.2c-1.6-1.5-2.3-3.3-2.3-5.6
			c0-1.5,0.4-2.8,1.1-4s1.7-2.1,3-2.7s3.1-1.2,5.5-1.6c3.2-0.6,5.5-1.2,6.7-1.7v-0.7c0-1.3-0.3-2.3-1-2.9c-0.7-0.6-1.9-0.9-3.7-0.9
			c-1.2,0-2.2,0.2-2.9,0.7C330.4,44.1,329.8,44.9,329.4,46.1z M338.7,51.8c-0.9,0.3-2.3,0.7-4.2,1.1c-1.9,0.4-3.2,0.8-3.8,1.2
			c-0.9,0.6-1.4,1.5-1.4,2.4c0,1,0.4,1.8,1.1,2.5c0.7,0.7,1.6,1.1,2.8,1.1c1.3,0,2.4-0.4,3.6-1.2c0.8-0.6,1.4-1.4,1.7-2.3
			c0.2-0.6,0.3-1.7,0.3-3.4V51.8z"/>
		<path style="&st1;" d="M351.4,64.4V28.2h6.9v36.2H351.4z"/>
	</g>
</g>
</svg>
